<?xml version="1.0" standalone="no"?>
<!DOCTYPE svg PUBLIC "-//W3C//DTD SVG 20010904//EN"
 "http://www.w3.org/TR/2001/REC-SVG-20010904/DTD/svg10.dtd">
<svg version="1.0" xmlns="http://www.w3.org/2000/svg"
 width="358.000000pt" height="358.000000pt" viewBox="0 0 358.000000 358.000000"
 preserveAspectRatio="xMidYMid meet">
<metadata>
Created by potrace 1.11, written by Peter Selinger 2001-2013
</metadata>
<g transform="translate(0.000000,358.000000) scale(0.100000,-0.100000)"
fill="#000000" stroke="none">
<path d="M1600 3569 c-25 -3 -70 -9 -100 -13 -30 -4 -69 -12 -87 -17 -17 -6
-44 -12 -60 -15 -64 -11 -245 -79 -348 -129 -283 -139 -525 -347 -694 -599
-19 -28 -43 -63 -53 -78 -20 -30 -119 -225 -123 -242 -1 -6 -7 -24 -14 -41
-25 -61 -52 -149 -71 -228 -18 -78 -22 -105 -40 -242 -8 -66 -6 -359 3 -390 3
-11 8 -42 12 -70 32 -266 182 -604 374 -840 238 -294 591 -519 955 -610 78
-19 81 -20 149 -29 27 -4 59 -10 70 -12 12 -3 92 -6 177 -8 159 -3 225 2 395
30 17 3 69 16 118 30 638 179 1114 672 1267 1313 62 259 61 580 -2 836 -127
521 -497 972 -982 1195 -155 72 -326 123 -496 151 -84 13 -380 19 -450 8z"/>
</g>
</svg>
